<?xml version="1.0" encoding="UTF-8"?>
<svg version="1.1" xmlns="http://www.w3.org/2000/svg" width="683" height="683">
<path d="M0 0 C0.75410156 0.51014648 1.50820313 1.02029297 2.28515625 1.54589844 C8.61303928 5.85717369 14.77476656 10.35164308 20.8125 15.0625 C22.03066406 16.00802734 22.03066406 16.00802734 23.2734375 16.97265625 C25.81184824 18.97298963 28.31433323 21.01215276 30.8125 23.0625 C31.75480469 23.81789063 32.69710937 24.57328125 33.66796875 25.3515625 C42.13356786 32.27663716 49.8816042 39.91590402 57.625 47.625 C58.42842331 48.42065872 58.42842331 48.42065872 59.24807739 49.23239136 C66.25330317 56.18423735 72.66969854 63.32856463 78.8125 71.0625 C80.24608217 72.77412239 81.68314138 74.4828438 83.125 76.1875 C92.31127066 87.42943962 100.51052564 99.52215273 107.8125 112.0625 C108.36405762 113.00536865 108.36405762 113.00536865 108.92675781 113.96728516 C155.50589828 194.09657127 167.77781867 288.25594178 144.40209961 377.74755859 C129.66861941 431.53183029 101.94244506 482.17334325 62.8125 522.0625 C61.92755859 522.96790527 61.04261719 523.87331055 60.13085938 524.80615234 C57.64140684 527.34919022 55.14254859 529.88271653 52.63766479 532.41055298 C51.64768213 533.40988283 50.65896255 534.41046592 49.67166138 535.41244507 C43.05843799 542.11119221 36.18315484 548.21359857 28.8125 554.0625 C27.55723338 555.09834448 26.30427953 556.1370045 25.0546875 557.1796875 C16.0878428 564.56629886 6.73937556 571.03411006 -3.1875 577.0625 C-4.34233887 577.76560303 -4.34233887 577.76560303 -5.52050781 578.48291016 C-74.27273748 619.92779768 -154.54827624 637.33885027 -234.1875 626.0625 C-235.18168945 625.92328125 -236.17587891 625.7840625 -237.20019531 625.640625 C-317.16919886 614.01268507 -398.04878171 571.12499843 -448.2421875 506.5625 C-450.36545318 503.83380516 -452.61487052 501.24122705 -454.875 498.625 C-465.60369268 485.75725332 -474.98220018 471.6588428 -483.1875 457.0625 C-483.69361816 456.17570557 -483.69361816 456.17570557 -484.20996094 455.27099609 C-496.90618543 432.86342107 -507.33060877 408.87992355 -514.1875 384.0625 C-514.652771 382.39888428 -514.652771 382.39888428 -515.12744141 380.70166016 C-519.55279144 364.64590169 -522.76357757 348.60262839 -524.81298828 332.07568359 C-525.1420754 329.42796967 -525.50342257 326.78706543 -525.87109375 324.14453125 C-533.70308476 262.65956259 -521.83463871 197.65751255 -495.1875 142.0625 C-494.85927246 141.37430176 -494.53104492 140.68610352 -494.19287109 139.97705078 C-491.94386571 135.2930492 -489.5946257 130.66701952 -487.1875 126.0625 C-486.78837402 125.29470215 -486.38924805 124.5269043 -485.97802734 123.73583984 C-474.95434595 102.67761992 -461.60043076 83.02138172 -445.453125 65.5390625 C-444.20468222 64.1743854 -442.96412882 62.80178562 -441.76074219 61.3972168 C-436.90159495 55.72651944 -431.7155929 50.40442906 -426.43701172 45.12670898 C-424.94856763 43.63608385 -423.46832723 42.13762983 -421.98828125 40.63867188 C-415.71595077 34.32946331 -409.17317006 28.58715529 -402.1875 23.0625 C-400.92106916 22.02600772 -399.65647939 20.9872579 -398.39453125 19.9453125 C-356.33102885 -14.3803504 -306.26441106 -37.09665534 -253.1875 -47.9375 C-252.23004883 -48.13714355 -251.27259766 -48.33678711 -250.28613281 -48.54248047 C-166.62212995 -65.77255405 -70.78644406 -48.53262307 0 0 Z M-133.1875 225.0625 C-143.36180021 236.65596226 -146.77666412 250.06249362 -146.625 265.3125 C-146.61255249 266.94276123 -146.61255249 266.94276123 -146.59985352 268.60595703 C-146.26329916 284.75817089 -142.54363429 298.09511435 -130.75 309.75 C-117.22323117 321.1753251 -99.30956133 326.08897568 -82.4609375 330.2578125 C-81.28217041 330.54958122 -81.28217041 330.54958122 -80.07958984 330.84724426 C-76.10084141 331.82751233 -72.11883999 332.79040603 -68.12988281 333.72827148 C-41.74524915 340.01569754 -41.74524915 340.01569754 -34.9140625 349.90625 C-31.48609009 356.03283899 -30.41385516 362.44318599 -31.9375 369.3125 C-34.08275937 375.7482781 -36.19039585 378.81041736 -42.26953125 381.85571289 C-52.61208469 386.13309255 -63.9288083 386.5511044 -74.96655273 386.45361328 C-77.12092595 386.43753041 -79.27341724 386.45357201 -81.42773438 386.47265625 C-101.96499465 386.50621458 -120.12107037 381.96592344 -135.1875 367.0625 C-151.55571098 348.56615886 -158.07705276 323.37783965 -165.8416748 300.4357605 C-176.93823442 265.65967916 -176.93823442 265.65967916 -196.1875 235.0625 C-196.88875 234.22847656 -197.59 233.39445312 -198.3125 232.53515625 C-208.93668498 220.26938713 -221.98240414 211.86454877 -237.3125 206.6875 C-238.01560303 206.44894287 -238.71870605 206.21038574 -239.44311523 205.96459961 C-252.38530406 201.85453 -265.26272111 201.68983973 -278.72167969 201.69189453 C-281.91656111 201.68752861 -285.11004993 201.65113707 -288.3046875 201.61328125 C-314.78726155 201.4659836 -338.93208805 209.20529503 -358.265625 227.984375 C-381.66890987 251.88231318 -388.4892785 287.71292284 -388.1875 320.0625 C-387.28290422 348.26327329 -381.19240867 374.32678892 -362.1875 396.0625 C-361.59582031 396.74957031 -361.00414062 397.43664062 -360.39453125 398.14453125 C-354.56605994 404.44524544 -347.51383995 408.72003912 -340.1875 413.0625 C-339.35347656 413.55878906 -338.51945312 414.05507813 -337.66015625 414.56640625 C-332.53822729 417.35938973 -327.18928336 419.13349123 -321.625 420.8125 C-320.58025513 421.12912598 -320.58025513 421.12912598 -319.5144043 421.45214844 C-309.43625189 424.33263409 -299.28996063 424.24886598 -288.89672852 424.24780273 C-286.52276391 424.24997913 -284.14927281 424.2681577 -281.77539062 424.28710938 C-269.61989384 424.33362629 -257.49339784 423.85544008 -246 419.5 C-244.96178101 419.11799438 -244.96178101 419.11799438 -243.90258789 418.72827148 C-238.21710417 416.57555241 -232.650335 414.15796378 -227.125 411.625 C-226.35196533 411.27816162 -225.57893066 410.93132324 -224.7824707 410.57397461 C-219.1077349 407.88128575 -214.72057658 404.3905437 -210.1875 400.0625 C-214.55344675 387.26650711 -218.98172651 374.54452507 -224.1875 362.0625 C-227.20317622 364.04755879 -230.17056123 366.05016639 -233.08984375 368.17578125 C-251.08609027 381.21553259 -270.73812408 388.36642203 -293.1875 386.0625 C-305.00932921 383.95724274 -315.592346 378.11880535 -323.27734375 368.82421875 C-339.27538543 345.69412576 -341.23747925 316.51498281 -336.53173828 289.41308594 C-333.5324205 273.78667433 -327.31720945 256.97114457 -313.625 247.6875 C-312.15264668 246.80108321 -310.67394743 245.92507351 -309.1875 245.0625 C-308.62546875 244.67320312 -308.0634375 244.28390625 -307.484375 243.8828125 C-294.70854477 235.38626521 -274.5448313 238.34833211 -260.1875 241.0625 C-247.71933623 244.77262599 -237.47520763 254.91725282 -231.125 266 C-222.08839231 284.14927832 -215.89470928 303.31373938 -209.54467773 322.52075195 C-205.43882119 334.90998865 -201.28915203 347.24510202 -196.37109375 359.33984375 C-196.01648575 360.21566605 -195.66187775 361.09148834 -195.29652405 361.99385071 C-190.32241765 373.93877627 -183.21433016 383.78689893 -174.1875 393.0625 C-173.3625 393.949375 -172.5375 394.83625 -171.6875 395.75 C-146.56108718 418.99193186 -114.63126795 424.30044687 -81.625 424.25 C-80.88759583 424.24939575 -80.15019165 424.2487915 -79.39044189 424.24816895 C-52.24140861 424.18812577 -21.71277915 423.22788839 -1.02612305 403.13061523 C10.65610765 391.2260619 16.45888763 377.13201322 16.91015625 360.453125 C16.25626136 346.35451328 12.34547452 332.43979936 3.8125 321.0625 C3.1525 321.0625 2.4925 321.0625 1.8125 321.0625 C1.44511719 320.18851563 1.44511719 320.18851563 1.0703125 319.296875 C-6.03242329 306.67959278 -26.30185032 300.46778542 -39.375 296.62890625 C-43.99567099 295.3439914 -48.64833754 294.20428118 -53.3125 293.08984375 C-54.03381607 292.9172403 -54.75513214 292.74463684 -55.49830627 292.56680298 C-59.11563681 291.70503004 -62.73574644 290.85986522 -66.36303711 290.04101562 C-88.95144616 284.85517337 -88.95144616 284.85517337 -96.1875 277.0625 C-100.3159782 269.5173502 -100.82230105 262.58968881 -98.90234375 254.3828125 C-97.13463665 248.64500911 -93.51749416 244.80136033 -88.72265625 241.38671875 C-77.36629212 235.45481206 -63.28326561 236.01103247 -51.1875 239.0625 C-42.43371492 242.35267436 -38.09401349 246.65964136 -34.0703125 254.9921875 C-32.80339931 257.9632671 -31.97043105 260.93077579 -31.1875 264.0625 C-23.5373492 264.31750503 -16.11045504 263.46290268 -8.53857422 262.46337891 C-6.42913351 262.18640145 -4.31830143 261.92278124 -2.20703125 261.66015625 C-0.85145937 261.4851721 0.50401339 261.30941797 1.859375 261.1328125 C3.07463867 260.97570801 4.28990234 260.81860352 5.54199219 260.65673828 C8.54848304 260.11047083 11.03733426 259.31624509 13.8125 258.0625 C13.75890184 245.17214307 8.56324673 231.64772515 -0.1875 222.0625 C-0.8475 222.0625 -1.5075 222.0625 -2.1875 222.0625 C-2.5175 221.0725 -2.8475 220.0825 -3.1875 219.0625 C-36.59845356 190.57881838 -102.92483696 194.32861902 -133.1875 225.0625 Z " fill="#FBFBFB" transform="translate(527.1875,53.9375)"/>
<path d="M0 0 C0.66 0.33 1.32 0.66 2 1 C-2.29 5.29 -6.58 9.58 -11 14 C-11 9.40845608 -8.09282279 7.18698368 -5 4 C-3.3719908 2.61973133 -1.71956118 1.26438322 0 0 Z " fill="#555555" transform="translate(214,300)"/>
</svg>
